<?xml version="1.0" encoding="UTF-8"?>
<svg xmlns="http://www.w3.org/2000/svg" xmlns:xlink="http://www.w3.org/1999/xlink" width="48pt" height="48pt" viewBox="0 0 48 48" version="1.1">
<defs>
<linearGradient id="linear0" gradientUnits="userSpaceOnUse" x1="86" y1="24.037" x2="86" y2="53.66758" gradientTransform="matrix(0.27907,0,0,0.27907,0,0)">
<stop offset="0" style="stop-color:rgb(92.54902%,78.431373%,30.588235%);stop-opacity:1;"/>
<stop offset="1" style="stop-color:rgb(27.058824%,77.254902%,58.431373%);stop-opacity:1;"/>
</linearGradient>
<linearGradient id="linear1" gradientUnits="userSpaceOnUse" x1="86" y1="38.8935" x2="86" y2="146.85575" gradientTransform="matrix(0.27907,0,0,0.27907,0,0)">
<stop offset="0" style="stop-color:rgb(96.862745%,90.588235%,70.196078%);stop-opacity:1;"/>
<stop offset="1" style="stop-color:rgb(60.784314%,87.843137%,77.647059%);stop-opacity:1;"/>
</linearGradient>
</defs>
<g id="surface5868198">
<path style=" stroke:none;fill-rule:nonzero;fill:url(#linear0);" d="M 24.414062 10.414062 L 21.878906 7.878906 C 21.316406 7.316406 20.554688 7 19.757812 7 L 5 7 C 3.894531 7 3 7.894531 3 9 L 3 39 C 3 40.105469 3.894531 41 5 41 L 43 41 C 44.105469 41 45 40.105469 45 39 L 45 13 C 45 11.894531 44.105469 11 43 11 L 25.828125 11 C 25.296875 11 24.789062 10.789062 24.414062 10.414062 Z M 24.414062 10.414062 "/>
<path style=" stroke:none;fill-rule:nonzero;fill:url(#linear1);" d="M 21.585938 14.414062 L 24.855469 11.144531 C 24.945312 11.054688 25.074219 11 25.207031 11 L 43 11 C 44.105469 11 45 11.894531 45 13 L 45 39 C 45 40.105469 44.105469 41 43 41 L 5 41 C 3.894531 41 3 40.105469 3 39 L 3 15.5 C 3 15.222656 3.222656 15 3.5 15 L 20.171875 15 C 20.703125 15 21.210938 14.789062 21.585938 14.414062 Z M 21.585938 14.414062 "/>
</g>
</svg>
